<?xml version="1.0" encoding="UTF-8" standalone="no"?>
<svg
   xmlns:dc="http://purl.org/dc/elements/1.1/"
   xmlns:cc="http://creativecommons.org/ns#"
   xmlns:rdf="http://www.w3.org/1999/02/22-rdf-syntax-ns#"
   xmlns:svg="http://www.w3.org/2000/svg"
   xmlns="http://www.w3.org/2000/svg"
   xmlns:sodipodi="http://sodipodi.sourceforge.net/DTD/sodipodi-0.dtd"
   xmlns:inkscape="http://www.inkscape.org/namespaces/inkscape"
   width="300px"
   height="300px"
   viewBox="0 0 300 300"
   version="1.1"
   id="svg5"
   sodipodi:docname="default.svg"
   inkscape:version="0.92.4 5da689c313, 2019-01-14">
  <metadata
     id="metadata11">
    <rdf:RDF>
      <cc:Work
         rdf:about="">
        <dc:format>image/svg+xml</dc:format>
        <dc:type
           rdf:resource="http://purl.org/dc/dcmitype/StillImage" />
      </cc:Work>
    </rdf:RDF>
  </metadata>
  <defs
     id="defs9" />
  <sodipodi:namedview
     pagecolor="#ffffff"
     bordercolor="#666666"
     borderopacity="1"
     objecttolerance="10"
     gridtolerance="10"
     guidetolerance="10"
     inkscape:pageopacity="0"
     inkscape:pageshadow="2"
     inkscape:window-width="1918"
     inkscape:window-height="1058"
     id="namedview7"
     showgrid="false"
     inkscape:zoom="0.78666667"
     inkscape:cx="-502.11864"
     inkscape:cy="150"
     inkscape:window-x="0"
     inkscape:window-y="20"
     inkscape:window-maximized="0"
     inkscape:current-layer="svg5" />
  <g
     id="surface1"
     transform="matrix(0.64752485,0,0,0.52929361,52.871273,70.605958)">
    <path
       style="fill:#000000;fill-opacity:1;fill-rule:nonzero;stroke:none"
       d="m 203.125,222.91797 c 0,5.01172 -1.53125,9.30469 -4.58984,12.87109 -3.0586,3.57031 -6.73829,5.35547 -11.03516,5.35547 -4.29688,0 -7.97656,-1.78516 -11.03516,-5.35547 -3.05859,-3.5664 -4.58984,-7.85937 -4.58984,-12.87109 0,-5.01563 1.53125,-9.30469 4.58984,-12.875 3.0586,-3.57031 6.73828,-5.35547 11.03516,-5.35547 4.29687,0 7.97656,1.78516 11.03516,5.35547 3.05859,3.57031 4.58984,7.85937 4.58984,12.875 z m 50,0 c 0,5.01172 -1.53125,9.30469 -4.58984,12.87109 -3.0586,3.57031 -6.73829,5.35547 -11.03516,5.35547 -4.29688,0 -7.97656,-1.78516 -11.03516,-5.35547 -3.05859,-3.5664 -4.58984,-7.85937 -4.58984,-12.87109 0,-5.01563 1.53125,-9.30469 4.58984,-12.875 3.0586,-3.57031 6.73828,-5.35547 11.03516,-5.35547 4.29687,0 7.97656,1.78516 11.03516,5.35547 3.05859,3.57031 4.58984,7.85937 4.58984,12.875 z M 275,259.375 v -72.91797 c 0,-1.97266 -0.61719,-3.68359 -1.85547,-5.125 -1.23828,-1.44531 -2.70312,-2.16406 -4.39453,-2.16406 H 31.25 c -1.691406,0 -3.15625,0.71875 -4.394531,2.16406 C 25.617188,182.77344 25,184.48437 25,186.45703 V 259.375 c 0,1.97656 0.617188,3.68359 1.855469,5.125 1.238281,1.44531 2.703125,2.16797 4.394531,2.16797 h 237.5 c 1.69141,0 3.15625,-0.72266 4.39453,-2.16797 C 274.38281,263.05859 275,261.35156 275,259.375 Z M 34.765625,150 H 265.23437 L 234.57031,40.167969 c -0.51953,-1.972657 -1.5625,-3.605469 -3.125,-4.898438 -1.5625,-1.289062 -3.2539,-1.9375 -5.07812,-1.9375 H 73.632812 c -1.824218,0 -3.515624,0.648438 -5.078124,1.9375 -1.5625,1.292969 -2.605469,2.925781 -3.125,4.898438 z M 300,186.45703 V 259.375 c 0,10.02734 -3.05859,18.60937 -9.17969,25.75 -6.12109,7.13672 -13.47656,10.70703 -22.07031,10.70703 H 31.25 c -8.59375,0 -15.949219,-3.57031 -22.070312,-10.70703 C 3.058594,277.98437 0,269.40234 0,259.375 v -72.91797 c 0,-3.79687 1.042969,-9.49219 3.125,-17.08984 L 41.601562,31.28125 C 43.816406,23.230469 47.917969,16.699219 53.90625,11.6875 59.894531,6.671875 66.472656,4.167969 73.632812,4.167969 H 226.36719 c 7.16015,0 13.73828,2.503906 19.72656,7.519531 5.98828,5.011719 10.08984,11.542969 12.30469,19.59375 L 296.875,169.36719 c 2.08203,7.59765 3.125,13.29297 3.125,17.08984 z m 0,0"
       id="path2"
       inkscape:connector-curvature="0" />
  </g>
</svg>
